<svg width="217" height="33" viewBox="0 0 217 33" fill="none" xmlns="http://www.w3.org/2000/svg">
<path d="M40.6142 4.95992C41.8073 2.49189 44.2188 0.832653 46.9596 0.593935C52.9805 0.0695389 57.285 6.26969 54.664 11.6913L49.2254 22.9415C48.0322 25.4096 45.6207 27.0688 42.8799 27.3075C36.859 27.8319 32.5545 21.6318 35.1755 16.2102L40.6142 4.95992Z" fill="white"/>
<path d="M23.8297 3.65963C24.6974 1.8647 26.4512 0.657984 28.4446 0.484371C32.8234 0.102992 35.9539 4.6122 34.0478 8.55517L26.4644 24.2418C25.5967 26.0367 23.8429 27.2434 21.8495 27.417C17.4707 27.7984 14.3402 23.2892 16.2463 19.3462L23.8297 3.65963Z" fill="white"/>
<path d="M9.89072 2.79281C10.5415 1.44661 11.8569 0.541568 13.3519 0.411359C16.636 0.125324 18.9839 3.50723 17.5543 6.46446L8.54117 25.1086C7.89038 26.4548 6.57501 27.3599 5.08001 27.4901C1.7959 27.7761 -0.552007 24.3942 0.877602 21.437L9.89072 2.79281Z" fill="white"/>
<path d="M76.2395 24.1916C74.6624 24.1916 73.2514 23.9333 72.0064 23.4169C70.7821 22.8798 69.8069 22.1568 69.0806 21.2479C68.3751 20.3183 67.9809 19.2751 67.8979 18.1183H73.8117C73.8947 18.6761 74.1541 19.1099 74.5898 19.4197C75.0256 19.7296 75.5651 19.8845 76.2083 19.8845C76.7063 19.8845 77.1006 19.7812 77.3911 19.5747C77.6816 19.3681 77.8269 19.0995 77.8269 18.769C77.8269 18.3352 77.5882 18.015 77.111 17.8085C76.6337 17.6019 75.8452 17.3747 74.7454 17.1268C73.5004 16.8789 72.4629 16.6 71.6329 16.2902C70.8029 15.9803 70.0766 15.4742 69.4541 14.7718C68.8524 14.0695 68.5515 13.1193 68.5515 11.9211C68.5515 10.8883 68.8316 9.9587 69.3919 9.13241C69.9521 8.28546 70.7718 7.6141 71.8508 7.11832C72.9505 6.62255 74.2682 6.37466 75.8037 6.37466C78.0862 6.37466 79.8811 6.93241 81.1884 8.0479C82.4957 9.16339 83.2531 10.6301 83.4606 12.4479H77.9514C77.8476 11.8902 77.5986 11.4667 77.2044 11.1775C76.8308 10.8676 76.3225 10.7127 75.6792 10.7127C75.1812 10.7127 74.7973 10.8056 74.5276 10.9916C74.2786 11.1775 74.1541 11.4357 74.1541 11.7662C74.1541 12.1794 74.3927 12.4995 74.8699 12.7268C75.3472 12.9333 76.115 13.1502 77.1732 13.3775C78.439 13.646 79.4869 13.9456 80.3169 14.2761C81.1677 14.6066 81.9043 15.1437 82.5268 15.8873C83.1701 16.6103 83.4917 17.6019 83.4917 18.862C83.4917 19.8742 83.1908 20.7831 82.589 21.5887C82.008 22.3944 81.1677 23.0348 80.0679 23.5099C78.9889 23.9643 77.7127 24.1916 76.2395 24.1916Z" fill="white"/>
<path d="M94.6146 24.1916C92.8716 24.1916 91.305 23.8301 89.9147 23.1071C88.5452 22.3841 87.4662 21.3512 86.6777 20.0085C85.8891 18.6657 85.4949 17.0855 85.4949 15.2676C85.4949 13.4704 85.8891 11.9005 86.6777 10.5578C87.4869 9.21504 88.5763 8.18217 89.9458 7.45917C91.3361 6.73616 92.9027 6.37466 94.6458 6.37466C96.3888 6.37466 97.9451 6.73616 99.3146 7.45917C100.705 8.18217 101.794 9.21504 102.583 10.5578C103.392 11.9005 103.797 13.4704 103.797 15.2676C103.797 17.0648 103.392 18.6451 102.583 20.0085C101.794 21.3512 100.705 22.3841 99.3146 23.1071C97.9243 23.8301 96.3577 24.1916 94.6146 24.1916ZM94.6146 18.924C95.4654 18.924 96.1709 18.6141 96.7312 17.9944C97.3122 17.354 97.6027 16.4451 97.6027 15.2676C97.6027 14.0902 97.3122 13.1916 96.7312 12.5718C96.1709 11.9521 95.4758 11.6423 94.6458 11.6423C93.8158 11.6423 93.1206 11.9521 92.5604 12.5718C92.0001 13.1916 91.72 14.0902 91.72 15.2676C91.72 16.4657 91.9897 17.3747 92.5292 17.9944C93.0687 18.6141 93.7639 18.924 94.6146 18.924Z" fill="white"/>
<path d="M112.379 1.04508V23.9747H106.279V1.04508H112.379Z" fill="white"/>
<path d="M114.857 15.2676C114.857 13.4704 115.179 11.9005 115.822 10.5578C116.486 9.21504 117.378 8.18217 118.499 7.45917C119.64 6.73616 120.906 6.37466 122.296 6.37466C123.5 6.37466 124.537 6.61222 125.409 7.08734C126.28 7.56245 126.955 8.20283 127.432 9.00846V6.59156H133.533V23.9747H127.432V21.5578C126.955 22.3634 126.27 23.0038 125.378 23.4789C124.506 23.954 123.479 24.1916 122.296 24.1916C120.906 24.1916 119.64 23.8301 118.499 23.1071C117.378 22.3841 116.486 21.3512 115.822 20.0085C115.179 18.6451 114.857 17.0648 114.857 15.2676ZM127.432 15.2676C127.432 14.1521 127.121 13.2742 126.498 12.6338C125.896 11.9934 125.149 11.6733 124.257 11.6733C123.344 11.6733 122.587 11.9934 121.985 12.6338C121.383 13.2535 121.082 14.1315 121.082 15.2676C121.082 16.3831 121.383 17.2714 121.985 17.9324C122.587 18.5728 123.344 18.893 124.257 18.893C125.149 18.893 125.896 18.5728 126.498 17.9324C127.121 17.292 127.432 16.4038 127.432 15.2676Z" fill="white"/>
<path d="M143.109 9.65917C143.794 8.66762 144.624 7.88264 145.599 7.30424C146.575 6.72583 147.623 6.43663 148.743 6.43663V12.9127H147.031C145.703 12.9127 144.718 13.1709 144.074 13.6873C143.431 14.2038 143.109 15.1024 143.109 16.3831V23.9747H137.009V6.59156H143.109V9.65917Z" fill="white"/>
<path d="M154.416 10.124C154.977 9.15306 155.807 8.34743 156.906 7.70706C158.027 7.04602 159.324 6.71551 160.797 6.71551C162.312 6.71551 163.681 7.07701 164.906 7.80001C166.151 8.52302 167.126 9.54555 167.831 10.8676C168.537 12.169 168.89 13.6873 168.89 15.4225C168.89 17.1371 168.537 18.6657 167.831 20.0085C167.126 21.3512 166.151 22.3944 164.906 23.138C163.681 23.8817 162.312 24.2535 160.797 24.2535C159.344 24.2535 158.058 23.9333 156.937 23.293C155.838 22.6319 154.997 21.816 154.416 20.8451V32.031H151.584V6.99438H154.416V10.124ZM165.995 15.4225C165.995 14.1418 165.736 13.0263 165.217 12.0761C164.698 11.1258 163.993 10.4028 163.1 9.90705C162.229 9.41128 161.264 9.16339 160.206 9.16339C159.168 9.16339 158.203 9.42161 157.311 9.93804C156.439 10.4338 155.734 11.1671 155.194 12.138C154.676 13.0883 154.416 14.1934 154.416 15.4535C154.416 16.7343 154.676 17.8601 155.194 18.831C155.734 19.7812 156.439 20.5146 157.311 21.031C158.203 21.5268 159.168 21.7747 160.206 21.7747C161.264 21.7747 162.229 21.5268 163.1 21.031C163.993 20.5146 164.698 19.7812 165.217 18.831C165.736 17.8601 165.995 16.724 165.995 15.4225Z" fill="white"/>
<path d="M174.081 4.23663C173.541 4.23663 173.085 4.05072 172.711 3.67889C172.338 3.30705 172.151 2.85259 172.151 2.3155C172.151 1.77842 172.338 1.32396 172.711 0.952125C173.085 0.580294 173.541 0.394379 174.081 0.394379C174.599 0.394379 175.035 0.580294 175.388 0.952125C175.761 1.32396 175.948 1.77842 175.948 2.3155C175.948 2.85259 175.761 3.30705 175.388 3.67889C175.035 4.05072 174.599 4.23663 174.081 4.23663ZM175.45 6.99438V23.9747H172.618V6.99438H175.45Z" fill="white"/>
<path d="M183.11 10.124C183.67 9.15306 184.5 8.34743 185.6 7.70706C186.721 7.04602 188.017 6.71551 189.491 6.71551C191.005 6.71551 192.375 7.07701 193.599 7.80001C194.844 8.52302 195.82 9.54555 196.525 10.8676C197.231 12.169 197.583 13.6873 197.583 15.4225C197.583 17.1371 197.231 18.6657 196.525 20.0085C195.82 21.3512 194.844 22.3944 193.599 23.138C192.375 23.8817 191.005 24.2535 189.491 24.2535C188.038 24.2535 186.752 23.9333 185.631 23.293C184.531 22.6319 183.691 21.816 183.11 20.8451V32.031H180.278V6.99438H183.11V10.124ZM194.689 15.4225C194.689 14.1418 194.429 13.0263 193.91 12.0761C193.392 11.1258 192.686 10.4028 191.794 9.90705C190.922 9.41128 189.958 9.16339 188.899 9.16339C187.862 9.16339 186.897 9.42161 186.005 9.93804C185.133 10.4338 184.428 11.1671 183.888 12.138C183.369 13.0883 183.11 14.1934 183.11 15.4535C183.11 16.7343 183.369 17.8601 183.888 18.831C184.428 19.7812 185.133 20.5146 186.005 21.031C186.897 21.5268 187.862 21.7747 188.899 21.7747C189.958 21.7747 190.922 21.5268 191.794 21.031C192.686 20.5146 193.392 19.7812 193.91 18.831C194.429 17.8601 194.689 16.724 194.689 15.4225Z" fill="white"/>
<path d="M216.874 14.8338C216.874 15.3709 216.843 15.939 216.781 16.538H203.148C203.252 18.2113 203.822 19.523 204.86 20.4733C205.918 21.4028 207.194 21.8676 208.688 21.8676C209.913 21.8676 210.929 21.5887 211.739 21.031C212.569 20.4526 213.15 19.6883 213.482 18.738H216.532C216.075 20.37 215.162 21.7024 213.793 22.7352C212.423 23.7474 210.722 24.2535 208.688 24.2535C207.07 24.2535 205.617 23.892 204.331 23.169C203.065 22.446 202.069 21.4235 201.343 20.1014C200.616 18.7587 200.253 17.2094 200.253 15.4535C200.253 13.6977 200.606 12.1587 201.312 10.8366C202.017 9.51457 203.003 8.50236 204.268 7.80001C205.555 7.07701 207.028 6.71551 208.688 6.71551C210.307 6.71551 211.739 7.06668 212.984 7.76903C214.229 8.47137 215.183 9.44227 215.847 10.6817C216.532 11.9005 216.874 13.2845 216.874 14.8338ZM213.948 14.2451C213.948 13.1709 213.71 12.2517 213.233 11.4873C212.755 10.7024 212.102 10.1136 211.272 9.72114C210.462 9.30799 209.56 9.10142 208.564 9.10142C207.132 9.10142 205.908 9.55588 204.891 10.4648C203.895 11.3737 203.324 12.6338 203.179 14.2451H213.948Z" fill="white"/>
</svg>
