<svg width="238" height="37" viewBox="0 0 238 37" fill="none" xmlns="http://www.w3.org/2000/svg">
<path d="M44.1435 5.20141C45.4549 2.38942 48.1053 0.498952 51.1177 0.226966C57.7351 -0.370512 62.4662 6.69372 59.5855 12.8709L53.6079 25.689C52.2966 28.501 49.6462 30.3915 46.6338 30.6635C40.0163 31.2609 35.2853 24.1967 38.166 18.0195L44.1435 5.20141Z" fill="url(#paint0_linear_1_55)"/>
<path d="M25.696 3.72048C26.6497 1.6754 28.5773 0.300507 30.7681 0.1027C35.5808 -0.33183 39.0215 4.80579 36.9265 9.29827L28.5918 27.171C27.6381 29.2161 25.7105 30.591 23.5196 30.7888C18.707 31.2233 15.2662 26.0857 17.3612 21.5932L25.696 3.72048Z" fill="url(#paint1_linear_1_55)"/>
<path d="M10.3759 2.73268C11.0912 1.19887 12.5369 0.167702 14.18 0.0193465C17.7896 -0.306551 20.3701 3.54666 18.7988 6.91602L8.89268 28.1585C8.17741 29.6923 6.73171 30.7235 5.08858 30.8718C1.47908 31.1977 -1.10147 27.3445 0.469788 23.9752L10.3759 2.73268Z" fill="url(#paint2_linear_1_55)"/>
<path d="M83.2986 27.1136C81.5653 27.1136 80.0145 26.8194 78.6461 26.231C77.3006 25.6191 76.2287 24.7953 75.4305 23.7597C74.655 22.7006 74.2217 21.512 74.1305 20.194H80.6303C80.7215 20.8295 81.0066 21.3237 81.4855 21.6768C81.9644 22.0298 82.5574 22.2064 83.2644 22.2064C83.8118 22.2064 84.2451 22.0887 84.5644 21.8533C84.8836 21.618 85.0433 21.312 85.0433 20.9354C85.0433 20.4411 84.781 20.0763 84.2565 19.841C83.7319 19.6056 82.8653 19.3467 81.6566 19.0643C80.2882 18.7818 79.1479 18.4641 78.2356 18.1111C77.3234 17.758 76.5252 17.1814 75.841 16.3812C75.1796 15.5809 74.8489 14.4983 74.8489 13.1332C74.8489 11.9564 75.1568 10.8972 75.7725 9.95579C76.3883 8.99081 77.2892 8.22588 78.4751 7.66102C79.6838 7.09615 81.132 6.81371 82.8197 6.81371C85.3284 6.81371 87.3011 7.44919 88.7379 8.72014C90.1747 9.99109 91.0071 11.6622 91.2352 13.7333H85.1801C85.0661 13.0979 84.7924 12.6154 84.3591 12.2859C83.9486 11.9328 83.3898 11.7563 82.6828 11.7563C82.1355 11.7563 81.7136 11.8622 81.4171 12.074C81.1434 12.2859 81.0066 12.5801 81.0066 12.9566C81.0066 13.4274 81.2689 13.7922 81.7934 14.0511C82.3179 14.2864 83.1618 14.5336 84.3249 14.7925C85.7161 15.0984 86.8678 15.4397 87.78 15.8163C88.7151 16.1929 89.5247 16.8048 90.2089 17.6521C90.9159 18.4759 91.2694 19.6056 91.2694 21.0413C91.2694 22.1946 90.9387 23.2302 90.2773 24.1481C89.6388 25.066 88.7151 25.7956 87.5064 26.3369C86.3204 26.8547 84.9179 27.1136 83.2986 27.1136Z" fill="url(#paint3_linear_1_55)"/>
<path d="M103.494 27.1136C101.579 27.1136 99.8568 26.7018 98.3288 25.878C96.8236 25.0542 95.6377 23.8774 94.771 22.3476C93.9044 20.8177 93.4711 19.0172 93.4711 16.946C93.4711 14.8984 93.9044 13.1096 94.771 11.5798C95.6605 10.0499 96.8578 8.87313 98.363 8.04936C99.8911 7.2256 101.613 6.81371 103.529 6.81371C105.444 6.81371 107.155 7.2256 108.66 8.04936C110.188 8.87313 111.385 10.0499 112.252 11.5798C113.141 13.1096 113.586 14.8984 113.586 16.946C113.586 18.9937 113.141 20.7942 112.252 22.3476C111.385 23.8774 110.188 25.0542 108.66 25.878C107.132 26.7018 105.41 27.1136 103.494 27.1136ZM103.494 21.1119C104.429 21.1119 105.205 20.7589 105.821 20.0528C106.459 19.3232 106.779 18.2876 106.779 16.946C106.779 15.6045 106.459 14.5806 105.821 13.8746C105.205 13.1685 104.441 12.8154 103.529 12.8154C102.616 12.8154 101.852 13.1685 101.237 13.8746C100.621 14.5806 100.313 15.6045 100.313 16.946C100.313 18.3111 100.609 19.3467 101.202 20.0528C101.795 20.7589 102.559 21.1119 103.494 21.1119Z" fill="url(#paint4_linear_1_55)"/>
<path d="M123.019 0.74139V26.8665H116.314V0.74139H123.019Z" fill="url(#paint5_linear_1_55)"/>
<path d="M125.743 16.946C125.743 14.8984 126.096 13.1096 126.803 11.5798C127.533 10.0499 128.514 8.87313 129.745 8.04936C131 7.2256 132.391 6.81371 133.919 6.81371C135.242 6.81371 136.382 7.08438 137.34 7.62571C138.298 8.16704 139.039 8.89666 139.563 9.81457V7.06084H146.268V26.8665H139.563V24.1128C139.039 25.0307 138.286 25.7603 137.306 26.3016C136.348 26.843 135.219 27.1136 133.919 27.1136C132.391 27.1136 131 26.7018 129.745 25.878C128.514 25.0542 127.533 23.8774 126.803 22.3476C126.096 20.7942 125.743 18.9937 125.743 16.946ZM139.563 16.946C139.563 15.6751 139.221 14.6748 138.537 13.9452C137.876 13.2155 137.055 12.8507 136.074 12.8507C135.071 12.8507 134.238 13.2155 133.577 13.9452C132.915 14.6513 132.585 15.6515 132.585 16.946C132.585 18.217 132.915 19.229 133.577 19.9822C134.238 20.7118 135.071 21.0766 136.074 21.0766C137.055 21.0766 137.876 20.7118 138.537 19.9822C139.221 19.2526 139.563 18.2405 139.563 16.946Z" fill="url(#paint6_linear_1_55)"/>
<path d="M156.794 10.556C157.547 9.42623 158.459 8.53185 159.531 7.87284C160.603 7.21383 161.755 6.88432 162.986 6.88432V14.2629H161.105C159.645 14.2629 158.562 14.5571 157.855 15.1455C157.148 15.7339 156.794 16.7577 156.794 18.217V26.8665H150.089V7.06084H156.794V10.556Z" fill="url(#paint7_linear_1_55)"/>
<path d="M169.221 11.0855C169.837 9.97933 170.749 9.06142 171.958 8.3318C173.19 7.57864 174.615 7.20206 176.234 7.20206C177.899 7.20206 179.404 7.61394 180.75 8.43771C182.118 9.26147 183.19 10.4265 183.966 11.9328C184.741 13.4156 185.129 15.1455 185.129 17.1225C185.129 19.076 184.741 20.8177 183.966 22.3476C183.19 23.8774 182.118 25.066 180.75 25.9133C179.404 26.7606 177.899 27.1842 176.234 27.1842C174.638 27.1842 173.224 26.8194 171.992 26.0898C170.784 25.3367 169.86 24.407 169.221 23.3008V36.0456H166.108V7.5198H169.221V11.0855ZM181.947 17.1225C181.947 15.6633 181.662 14.3924 181.092 13.3097C180.522 12.227 179.746 11.4033 178.766 10.8384C177.808 10.2735 176.747 9.99109 175.584 9.99109C174.444 9.99109 173.384 10.2853 172.403 10.8737C171.445 11.4386 170.67 12.2741 170.077 13.3803C169.506 14.463 169.221 15.7221 169.221 17.1579C169.221 18.6171 169.506 19.8998 170.077 21.006C170.67 22.0887 171.445 22.9242 172.403 23.5126C173.384 24.0775 174.444 24.3599 175.584 24.3599C176.747 24.3599 177.808 24.0775 178.766 23.5126C179.746 22.9242 180.522 22.0887 181.092 21.006C181.662 19.8998 181.947 18.6053 181.947 17.1225Z" fill="url(#paint8_linear_1_55)"/>
<path d="M190.834 4.37772C190.241 4.37772 189.74 4.1659 189.329 3.74225C188.918 3.3186 188.713 2.8008 188.713 2.18886C188.713 1.57692 188.918 1.05913 189.329 0.635476C189.74 0.211825 190.241 0 190.834 0C191.404 0 191.883 0.211825 192.271 0.635476C192.682 1.05913 192.887 1.57692 192.887 2.18886C192.887 2.8008 192.682 3.3186 192.271 3.74225C191.883 4.1659 191.404 4.37772 190.834 4.37772ZM192.339 7.5198V26.8665H189.226V7.5198H192.339Z" fill="url(#paint9_linear_1_55)"/>
<path d="M200.758 11.0855C201.374 9.97933 202.286 9.06142 203.495 8.3318C204.726 7.57864 206.152 7.20206 207.771 7.20206C209.436 7.20206 210.941 7.61394 212.287 8.43771C213.655 9.26147 214.727 10.4265 215.502 11.9328C216.278 13.4156 216.666 15.1455 216.666 17.1225C216.666 19.076 216.278 20.8177 215.502 22.3476C214.727 23.8774 213.655 25.066 212.287 25.9133C210.941 26.7606 209.436 27.1842 207.771 27.1842C206.175 27.1842 204.761 26.8194 203.529 26.0898C202.32 25.3367 201.397 24.407 200.758 23.3008V36.0456H197.645V7.5198H200.758V11.0855ZM213.484 17.1225C213.484 15.6633 213.199 14.3924 212.629 13.3097C212.059 12.227 211.283 11.4033 210.303 10.8384C209.345 10.2735 208.284 9.99109 207.121 9.99109C205.981 9.99109 204.92 10.2853 203.94 10.8737C202.982 11.4386 202.206 12.2741 201.613 13.3803C201.043 14.463 200.758 15.7221 200.758 17.1579C200.758 18.6171 201.043 19.8998 201.613 21.006C202.206 22.0887 202.982 22.9242 203.94 23.5126C204.92 24.0775 205.981 24.3599 207.121 24.3599C208.284 24.3599 209.345 24.0775 210.303 23.5126C211.283 22.9242 212.059 22.0887 212.629 21.006C213.199 19.8998 213.484 18.6053 213.484 17.1225Z" fill="url(#paint10_linear_1_55)"/>
<path d="M237.868 16.4518C237.868 17.0637 237.834 17.7109 237.765 18.3935H222.782C222.896 20.2999 223.523 21.7945 224.663 22.8771C225.826 23.9363 227.229 24.4658 228.871 24.4658C230.216 24.4658 231.334 24.1481 232.223 23.5126C233.136 22.8536 233.774 21.9828 234.139 20.9001H237.492C236.99 22.7595 235.986 24.2775 234.481 25.4543C232.976 26.6076 231.106 27.1842 228.871 27.1842C227.092 27.1842 225.495 26.7724 224.081 25.9486C222.69 25.1248 221.596 23.9598 220.797 22.4535C219.999 20.9236 219.6 19.1584 219.6 17.1579C219.6 15.1573 219.988 13.4038 220.763 11.8975C221.539 10.3912 222.622 9.23794 224.013 8.43771C225.427 7.61394 227.046 7.20206 228.871 7.20206C230.65 7.20206 232.223 7.60218 233.592 8.4024C234.96 9.20263 236.009 10.3088 236.739 11.721C237.492 13.1096 237.868 14.6866 237.868 16.4518ZM234.652 15.781C234.652 14.5571 234.39 13.5097 233.865 12.6389C233.341 11.7445 232.622 11.0738 231.71 10.6266C230.821 10.1558 229.829 9.92049 228.734 9.92049C227.16 9.92049 225.815 10.4383 224.697 11.4739C223.603 12.5095 222.975 13.9452 222.816 15.781H234.652Z" fill="url(#paint11_linear_1_55)"/>
<defs>
<linearGradient id="paint0_linear_1_55" x1="25.9821" y1="14.6732" x2="56.4154" y2="31.1322" gradientUnits="userSpaceOnUse">
<stop stop-color="#F27F3E"/>
<stop offset="0.473958" stop-color="#B75377"/>
<stop offset="1" stop-color="#6534A4"/>
<stop offset="1" stop-color="#6534A4"/>
<stop offset="1" stop-color="#F27F3E"/>
</linearGradient>
<linearGradient id="paint1_linear_1_55" x1="6.54937" y1="14.6679" x2="35.2435" y2="28.5233" gradientUnits="userSpaceOnUse">
<stop stop-color="#F27F3E"/>
<stop offset="0.473958" stop-color="#B75377"/>
<stop offset="1" stop-color="#6534A4"/>
<stop offset="1" stop-color="#6534A4"/>
<stop offset="1" stop-color="#F27F3E"/>
</linearGradient>
<linearGradient id="paint2_linear_1_55" x1="-9.42743" y1="14.6639" x2="17.9159" y2="26.8237" gradientUnits="userSpaceOnUse">
<stop stop-color="#F27F3E"/>
<stop offset="0.473958" stop-color="#B75377"/>
<stop offset="1" stop-color="#6534A4"/>
<stop offset="1" stop-color="#6534A4"/>
<stop offset="1" stop-color="#F27F3E"/>
</linearGradient>
<linearGradient id="paint3_linear_1_55" x1="-5.98019" y1="17.1107" x2="18.2448" y2="95.565" gradientUnits="userSpaceOnUse">
<stop stop-color="#F27F3E"/>
<stop offset="0.473958" stop-color="#B75377"/>
<stop offset="1" stop-color="#6534A4"/>
<stop offset="1" stop-color="#6534A4"/>
<stop offset="1" stop-color="#F27F3E"/>
</linearGradient>
<linearGradient id="paint4_linear_1_55" x1="-5.98019" y1="17.1107" x2="18.2448" y2="95.565" gradientUnits="userSpaceOnUse">
<stop stop-color="#F27F3E"/>
<stop offset="0.473958" stop-color="#B75377"/>
<stop offset="1" stop-color="#6534A4"/>
<stop offset="1" stop-color="#6534A4"/>
<stop offset="1" stop-color="#F27F3E"/>
</linearGradient>
<linearGradient id="paint5_linear_1_55" x1="-5.98019" y1="17.1107" x2="18.2448" y2="95.565" gradientUnits="userSpaceOnUse">
<stop stop-color="#F27F3E"/>
<stop offset="0.473958" stop-color="#B75377"/>
<stop offset="1" stop-color="#6534A4"/>
<stop offset="1" stop-color="#6534A4"/>
<stop offset="1" stop-color="#F27F3E"/>
</linearGradient>
<linearGradient id="paint6_linear_1_55" x1="-5.98019" y1="17.1107" x2="18.2448" y2="95.565" gradientUnits="userSpaceOnUse">
<stop stop-color="#F27F3E"/>
<stop offset="0.473958" stop-color="#B75377"/>
<stop offset="1" stop-color="#6534A4"/>
<stop offset="1" stop-color="#6534A4"/>
<stop offset="1" stop-color="#F27F3E"/>
</linearGradient>
<linearGradient id="paint7_linear_1_55" x1="-5.98019" y1="17.1107" x2="18.2448" y2="95.565" gradientUnits="userSpaceOnUse">
<stop stop-color="#F27F3E"/>
<stop offset="0.473958" stop-color="#B75377"/>
<stop offset="1" stop-color="#6534A4"/>
<stop offset="1" stop-color="#6534A4"/>
<stop offset="1" stop-color="#F27F3E"/>
</linearGradient>
<linearGradient id="paint8_linear_1_55" x1="-5.98019" y1="17.1107" x2="18.2448" y2="95.565" gradientUnits="userSpaceOnUse">
<stop stop-color="#F27F3E"/>
<stop offset="0.473958" stop-color="#B75377"/>
<stop offset="1" stop-color="#6534A4"/>
<stop offset="1" stop-color="#6534A4"/>
<stop offset="1" stop-color="#F27F3E"/>
</linearGradient>
<linearGradient id="paint9_linear_1_55" x1="-5.98019" y1="17.1107" x2="18.2448" y2="95.565" gradientUnits="userSpaceOnUse">
<stop stop-color="#F27F3E"/>
<stop offset="0.473958" stop-color="#B75377"/>
<stop offset="1" stop-color="#6534A4"/>
<stop offset="1" stop-color="#6534A4"/>
<stop offset="1" stop-color="#F27F3E"/>
</linearGradient>
<linearGradient id="paint10_linear_1_55" x1="-5.98019" y1="17.1107" x2="18.2448" y2="95.565" gradientUnits="userSpaceOnUse">
<stop stop-color="#F27F3E"/>
<stop offset="0.473958" stop-color="#B75377"/>
<stop offset="1" stop-color="#6534A4"/>
<stop offset="1" stop-color="#6534A4"/>
<stop offset="1" stop-color="#F27F3E"/>
</linearGradient>
<linearGradient id="paint11_linear_1_55" x1="-5.98019" y1="17.1107" x2="18.2448" y2="95.565" gradientUnits="userSpaceOnUse">
<stop stop-color="#F27F3E"/>
<stop offset="0.473958" stop-color="#B75377"/>
<stop offset="1" stop-color="#6534A4"/>
<stop offset="1" stop-color="#6534A4"/>
<stop offset="1" stop-color="#F27F3E"/>
</linearGradient>
</defs>
</svg>
